<svg version="1.1" viewBox="0.0 0.0 512.0 512.0" fill="none" stroke="none" stroke-linecap="square" stroke-miterlimit="10" xmlns:xlink="http://www.w3.org/1999/xlink" xmlns="http://www.w3.org/2000/svg"><clipPath id="p.0"><path d="m0 0l512.0 0l0 512.0l-512.0 0l0 -512.0z" clip-rule="nonzero"/></clipPath><g clip-path="url(#p.0)"><path fill="#000000" fill-opacity="0.0" d="m0 0l512.0 0l0 512.0l-512.0 0z" fill-rule="evenodd"/><path fill="var(--text, #ffffff)" d="m297.84244 227.79456l0 0c4.661804 6.9231415 -10.292572 25.163132 -33.40155 40.740173l0 0c-23.108994 15.577026 -45.621674 22.592407 -50.283478 15.669281l0 0c-4.661804 -6.923126 10.292587 -25.163116 33.40158 -40.740158l0 0c23.108978 -15.577042 45.621643 -22.592422 50.283447 -15.669296z" fill-rule="evenodd"/><path fill="var(--text, #ffffff)" d="m51.280838 117.10499l0 0c0 -13.254837 10.745167 -24.0 24.0 -24.0l0 0c6.365196 0 12.469688 2.5285645 16.970566 7.029434c4.5008698 4.5008774 7.029434 10.60537 7.029434 16.970566l0 0c0 13.254829 -10.745163 23.999992 -24.0 23.999992l0 0c-13.254833 0 -24.0 -10.745163 -24.0 -23.999992z" fill-rule="evenodd"/><path fill="var(--text, #ffffff)" d="m432.6509 159.54593l0 0c0 -13.254837 10.745178 -24.0 24.0 -24.0l0 0c6.365204 0 12.469696 2.5285645 16.970581 7.029434c4.5008545 4.500885 7.029419 10.605377 7.029419 16.970566l0 0c0 13.254837 -10.745148 24.0 -24.0 24.0l0 0c-13.254822 0 -24.0 -10.745163 -24.0 -24.0z" fill-rule="evenodd"/><path fill="var(--text, #ffffff)" d="m249.94226 455.98688l0 0c0 -13.254822 10.745148 -24.0 24.0 -24.0l0 0c6.365204 0 12.469696 2.5285645 16.97055 7.0294495c4.500885 4.5008545 7.0294495 10.605347 7.0294495 16.97055l0 0c0 13.254822 -10.745178 24.0 -24.0 24.0l0 0c-13.254852 0 -24.0 -10.745178 -24.0 -24.0z" fill-rule="evenodd"/><path fill="var(--text, #ffffff)" d="m231.53543 45.7769l0 0c0 -7.949421 6.444275 -14.3937 14.393707 -14.3937l0 0c3.8174438 0 7.478531 1.5164757 10.177887 4.2158165c2.6993408 2.6993446 4.2158203 6.3604393 4.2158203 10.177883l0 0c0 7.9494247 -6.44429 14.393703 -14.393707 14.393703l0 0c-7.9494324 0 -14.393707 -6.4442787 -14.393707 -14.393703z" fill-rule="evenodd"/><path fill="var(--text, #ffffff)" d="m180.2336 433.5853l0 0c0 -7.949402 6.444275 -14.393707 14.393707 -14.393707l0 0c3.8174438 0 7.478531 1.5164795 10.177872 4.2158203c2.6993408 2.6993408 4.2158203 6.360443 4.2158203 10.177887l0 0c0 7.9494324 -6.444275 14.393707 -14.393692 14.393707l0 0c-7.9494324 0 -14.393707 -6.444275 -14.393707 -14.393707z" fill-rule="evenodd"/><path fill="var(--text, #ffffff)" d="m103.31233 173.97113l0 0c0 -5.30542 4.300888 -9.606308 9.6063 -9.606308l0 0c2.5477524 0 4.99115 1.0121002 6.792679 2.8136292c1.8015366 1.8015289 2.8136215 4.244934 2.8136215 6.792679l0 0c0 5.3054047 -4.300888 9.606293 -9.6063 9.606293l0 0c-5.3054123 0 -9.6063 -4.300888 -9.6063 -9.606293z" fill-rule="evenodd"/><path fill="var(--text, #ffffff)" d="m88.062996 438.3727l0 0c0 -5.30542 4.3008804 -9.606293 9.606293 -9.606293l0 0c2.5477524 0 4.99115 1.012085 6.792679 2.8135986c1.8015366 1.8015442 2.8136215 4.244934 2.8136215 6.792694l0 0c0 5.30542 -4.300888 9.606293 -9.6063 9.606293l0 0c-5.3054123 0 -9.606293 -4.300873 -9.606293 -9.606293z" fill-rule="evenodd"/><path fill="var(--text, #ffffff)" d="m480.6509 232.4252l0 0c0 -5.30542 4.3009033 -9.606308 9.606323 -9.606308l0 0c2.5477295 0 4.9911194 1.0121002 6.7926636 2.8136292c1.8015442 1.8015289 2.8136292 4.244919 2.8136292 6.792679l0 0c0 5.3054047 -4.3009033 9.606293 -9.606293 9.606293l0 0c-5.30542 0 -9.606323 -4.300888 -9.606323 -9.606293z" fill-rule="evenodd"/><path fill="var(--text, #ffffff)" d="m196.30731 292.6179c-2.9378967 -8.012695 -30.047256 -9.881897 -16.826782 -32.049866c13.220474 -22.167984 53.416016 -74.24979 96.1496 -100.95801c42.733612 -26.708221 132.74237 -47.005684 160.25198 -59.291336c27.509613 -12.285652 17.892822 -15.090111 4.805786 -14.422569c-13.087067 0.6675415 -52.346466 6.676285 -83.328094 18.427818c-30.981628 11.7515335 -72.64786 31.515747 -102.561676 52.08136c-29.913834 20.565628 -59.961517 50.74672 -76.921265 71.31235c-16.959763 20.565613 -23.368332 38.059494 -24.83728 52.081345c-1.4689331 14.021881 8.678925 27.24237 16.023636 32.049896c7.344696 4.807495 23.503937 4.272461E-4 28.044617 -3.2047424c4.54068 -3.2051697 2.1373596 -8.01355 -0.80052185 -16.026245z" fill-rule="evenodd"/><path fill="var(--text, #ffffff)" d="m294.7708 265.37225c-15.624664 10.282593 -54.08487 55.552917 -83.33072 72.91339c-29.245834 17.360443 -65.83682 27.109344 -92.144356 31.249329c-26.307526 4.139984 -52.346893 -2.937439 -65.70079 -6.4094543c-13.353893 -3.4719849 -10.149166 -9.080902 -14.422569 -14.422546c-4.273403 -5.341675 -9.348207 -21.900726 -11.21785 -17.62732c-1.8696404 4.273407 -6.677164 33.11856 0 43.26773c6.677166 10.14917 18.162292 15.75766 40.062992 17.627289c21.900703 1.8696289 60.493004 2.8049011 91.34121 -6.4094543c30.848206 -9.214355 71.4462 -34.186768 93.74803 -48.876648c22.301834 -14.68985 31.382767 -29.246704 40.063004 -39.26245c8.680206 -10.015747 11.751526 -15.490387 12.018372 -20.832031c0.2668152 -5.3416443 5.2073364 -21.500427 -10.417328 -11.217834z" fill-rule="evenodd"/><path fill="var(--text, #ffffff)" d="m298.86725 193.28532c14.289154 -7.4785614 62.230957 -31.248901 83.33072 -32.049866c21.099731 -0.80096436 38.86087 10.684601 43.2677 27.244095c4.40683 16.559494 -4.273834 48.475937 -16.826752 72.112854c-12.552948 23.636932 -38.726624 51.54724 -58.490814 69.70868c-19.764221 18.161407 -50.612885 34.58615 -60.094513 39.259827c-9.481628 4.6736755 -8.013123 1.4685059 3.2047424 -11.217834c11.217834 -12.686371 45.94049 -43.667114 64.102356 -64.90027c18.161865 -21.233154 38.726166 -47.007874 44.868774 -62.498688c6.1426086 -15.490814 -2.2707825 -22.968079 -8.013123 -30.446198c-5.74234 -7.478134 -16.291779 -13.62117 -26.440948 -14.422577c-10.14917 -0.8013916 -22.568695 6.275589 -34.45407 9.6141815c-11.8854065 3.3385773 -31.115936 10.818024 -36.858276 10.417313c-5.74234 -0.4006958 -11.884949 -5.3429565 2.4042053 -12.821518z" fill-rule="evenodd"/></g></svg>